<?xml version="1.0" encoding="UTF-8" standalone="no"?>
<svg
   viewBox="0 0 164.94 63.89"
   version="1.1"
   id="svg2"
   sodipodi:docname="vital-top.svg"
   inkscape:version="1.3 (0e150ed, 2023-07-21)"
   xmlns:inkscape="http://www.inkscape.org/namespaces/inkscape"
   xmlns:sodipodi="http://sodipodi.sourceforge.net/DTD/sodipodi-0.dtd"
   xmlns="http://www.w3.org/2000/svg"
   xmlns:svg="http://www.w3.org/2000/svg">
  <sodipodi:namedview
     id="namedview2"
     pagecolor="#ffffff"
     bordercolor="#000000"
     borderopacity="0.25" />
  <title
     id="title1">Asset 6</title>
  <path
     d="m 162.13,62.89 a 4.42,4.42 0 0 0 -3.13,-1.7 0.9,0.9 0 0 0 -1.6,0 12.6,12.6 0 0 0 -4.58,1.67 H 12.12 a 12.54,12.54 0 0 0 -4.58,-1.67 0.9,0.9 0 0 0 -1.6,0 4.44,4.44 0 0 0 -3.13,1.7 H 1 v -9 A 99.44,99.44 0 0 0 2.47,38.18 V 8.23 C 4.31,5.26 7.74,1 12.28,1 h 140.38 c 4.53,0 8,4.27 9.81,7.23 v 30 a 99.44,99.44 0 0 0 1.47,15.72 v 9 z M 1,10.93 C 1.11,10.7 1.44,10 2,9.07 V 38.18 A 91.61,91.61 0 0 1 1,50.6 Z M 5.41,1 H 8.25 C 4.75,2.76 2.27,6.46 1,8.73 V 4.78 C 2,4.4 5,3.14 5.41,1 m 154.13,0 c 0.41,2.14 3.36,3.4 4.4,3.78 v 4 c -1.27,-2.27 -3.75,-6 -7.25,-7.73 z M 163,9.07 c 0.53,0.93 0.86,1.63 1,1.86 V 50.6 a 91.61,91.61 0 0 1 -1,-12.42 z m 1.62,-5.13 c -1.14,-0.35 -4.1,-1.66 -4.1,-3.44 V 0 H 4.45 v 0.5 c 0,1.77 -3,3.09 -4.1,3.44 L 0,4.05 V 63.89 H 3.38 L 3.52,63.63 A 3.35,3.35 0 0 1 6,62.19 a 0.93,0.93 0 0 0 0.73,0.38 0.92,0.92 0 0 0 0.71,-0.36 11.84,11.84 0 0 1 4.3,1.62 l 0.11,0.06 h 141.24 l 0.12,-0.06 a 11.74,11.74 0 0 1 4.29,-1.62 0.92,0.92 0 0 0 0.71,0.36 0.93,0.93 0 0 0 0.73,-0.38 3.35,3.35 0 0 1 2.48,1.44 l 0.14,0.26 h 3.38 V 4.05 Z"
     id="path2"
     style="display:inline"
     inkscape:label="Main" />
</svg>
